PathFileType	4	(X/Y/Z)	OpenSim_Sub04_CSBaseline_Magnet.trc
DataRate	CameraRate	NumFrames	NumMarkers	Units	OrigDataRate	OrigDataStartFrame	OrigNumFrames
100	100	27	8	m	100	1	8083
Frame#	Time	torso_imu_offset_imu	pelvis_imu_offset_imu	tibia_r_imu_offset_imu	femur_r_imu_offset_imu	tibia_l_imu_offset_imu	femur_l_imu_offset_imu	toes_r_imu_offset_imu	toes_l_imu_offset_imu
				X1	Y1	Z1	X2	Y2	Z2	X3	Y3	Z3	X4	Y4	Z4	X5	Y5	Z5	X6	Y6	Z6	X7	Y7	Z7	X8		Y8	Z8	

1	0	0.92392094	0.21210991	-0.09858775	-0.62463626	0.22915113	-0.65380752	-0.57624162	-0.53654563	-0.25214458	-0.70252212	-0.47255927	0.01989861	-0.64691331	0.48218486	0.16790852	-0.56144065	-0.12037248	0.26664599	-0.69755496	-0.20313124	-0.32989664	-0.67390865	-0.31212354	-0.34325583
2	0.01000000	0.92325331	0.21637162	-0.10809352	-0.63078429	0.23409086	-0.65163584	-0.58202720	-0.53626101	-0.25771532	-0.70529459	-0.47090464	0.02218183	-0.64981304	0.48020821	0.16749734	-0.55910361	-0.11847307	0.27331951	-0.69446765	-0.20741355	-0.32859400	-0.66450613	-0.31126484	-0.34042232
3	0.02000000	0.92312342	0.21357317	-0.10459278	-0.62489399	0.22635909	-0.64493645	-0.57846348	-0.53768789	-0.25686498	-0.70651465	-0.47289114	0.01598422	-0.64835844	0.48430813	0.16450764	-0.55767248	-0.11957023	0.27107226	-0.69806594	-0.20255177	-0.32573956	-0.66875027	-0.30611098	-0.34193301
4	0.03000000	0.92541788	0.21224986	-0.11135593	-0.62517743	0.23030192	-0.64144608	-0.57739507	-0.54076439	-0.25814242	-0.70435749	-0.46907989	0.01870889	-0.64658439	0.47942838	0.16368703	-0.55782145	-0.12281129	0.26517790	-0.69964706	-0.20124534	-0.32948607	-0.66608897	-0.30949613	-0.34441889
5	0.04000000	0.92355852	0.21433706	-0.11339107	-0.62874069	0.23182031	-0.64340260	-0.57793832	-0.53540756	-0.25711124	-0.70399726	-0.47346856	0.02010720	-0.65400339	0.47733798	0.16948820	-0.55833461	-0.11852541	0.26993773	-0.69503533	-0.20001177	-0.32872826	-0.66869225	-0.31026859	-0.34499046
6	0.05000000	0.92523903	0.21467229	-0.11652994	-0.62435437	0.23362546	-0.64413437	-0.57772189	-0.53348306	-0.25627494	-0.70428109	-0.47580185	0.02052773	-0.64703748	0.48180962	0.15866420	-0.55580455	-0.12179281	0.27662221	-0.69847918	-0.19781356	-0.32652075	-0.66975807	-0.31233723	-0.34396369
7	0.06000000	0.92385639	0.21455816	-0.12130385	-0.62770160	0.23212910	-0.64375962	-0.57945811	-0.53791576	-0.25835656	-0.70248992	-0.46927395	0.01539982	-0.64694133	0.48451464	0.16482245	-0.55771356	-0.12107806	0.27031949	-0.69778071	-0.19713753	-0.32239073	-0.67155810	-0.31051392	-0.35101629
8	0.07000000	0.92310152	0.21469509	-0.12427749	-0.62676846	0.23171994	-0.64403496	-0.58012174	-0.53676236	-0.25724098	-0.70185190	-0.47212837	0.02064058	-0.64775383	0.48448082	0.16451925	-0.55678303	-0.11977117	0.27327242	-0.69510935	-0.20071182	-0.32266915	-0.67243912	-0.31227605	-0.34619678
9	0.08000000	0.92379512	0.21326104	-0.12328820	-0.62738394	0.23001784	-0.64164619	-0.57804335	-0.53659153	-0.25429349	-0.70195788	-0.47258979	0.02331459	-0.64938064	0.48526047	0.16793661	-0.56792807	-0.12314621	0.27263578	-0.69448718	-0.20185535	-0.32926815	-0.66808141	-0.31053090	-0.34415075
10	0.09000000	0.91963271	0.21034150	-0.13273293	-0.63260245	0.22890439	-0.64293376	-0.57831876	-0.53402429	-0.25591216	-0.70161762	-0.47800452	0.01584639	-0.65039193	0.47994156	0.16580526	-0.56037042	-0.11475261	0.27047872	-0.69702839	-0.19933158	-0.32889370	-0.66873164	-0.31226932	-0.34674177
11	0.10000000	0.92088180	0.21395159	-0.13949483	-0.62727542	0.23358443	-0.64652092	-0.57373300	-0.53825978	-0.25846818	-0.70207237	-0.47801497	0.02073444	-0.64619632	0.48843557	0.15963451	-0.55731350	-0.11879680	0.26343899	-0.69353185	-0.20292410	-0.32605931	-0.67259958	-0.31054086	-0.34555762
12	0.11000000	0.91940123	0.21327104	-0.13805982	-0.62752881	0.23034057	-0.64174348	-0.57740457	-0.53261238	-0.25713773	-0.70010316	-0.47339536	0.02292401	-0.64523322	0.48200713	0.16193121	-0.55804328	-0.12106543	0.26802673	-0.69220093	-0.20154589	-0.32719631	-0.66478208	-0.31223622	-0.34199049
13	0.12000000	0.92108664	0.21008849	-0.13655354	-0.63042436	0.22945920	-0.64532344	-0.57423055	-0.53721667	-0.25459488	-0.70154690	-0.47289250	0.01956655	-0.64503066	0.48350383	0.15950870	-0.55780624	-0.11792990	0.27158543	-0.69650967	-0.20480979	-0.33125592	-0.66328567	-0.31066329	-0.34891741
14	0.13000000	0.91971909	0.21453980	-0.14290141	-0.62852940	0.22780984	-0.64394811	-0.57516851	-0.53673478	-0.25355954	-0.70182095	-0.47246784	0.02399615	-0.64952805	0.48673841	0.16555509	-0.55994644	-0.12219289	0.27233237	-0.69476468	-0.20443010	-0.33287879	-0.67585208	-0.31177961	-0.34227403
15	0.14000000	0.91889881	0.20904446	-0.14545218	-0.62823009	0.22886327	-0.64775987	-0.57536374	-0.53950812	-0.25833675	-0.70257769	-0.47676147	0.02079781	-0.64653009	0.48720090	0.16124261	-0.55842999	-0.11893080	0.26811458	-0.69879758	-0.19939441	-0.32625698	-0.66860939	-0.31461702	-0.33931602
16	0.15000000	0.92096263	0.21182787	-0.15138331	-0.62773672	0.23150165	-0.64537795	-0.57753582	-0.54233870	-0.25462414	-0.69616758	-0.47346876	0.02150772	-0.64485180	0.48526552	0.15866250	-0.55927805	-0.11964671	0.26711621	-0.69358715	-0.20456838	-0.33118552	-0.67326954	-0.31304817	-0.34602618
17	0.16000000	0.92182727	0.21095862	-0.15646721	-0.63304004	0.23037994	-0.63901489	-0.57444623	-0.54265596	-0.25777083	-0.70108226	-0.47388074	0.02276475	-0.64939558	0.48453353	0.16566816	-0.56262270	-0.12093982	0.26746168	-0.69452448	-0.20435988	-0.32871144	-0.66708399	-0.31079156	-0.34781380
18	0.17000000	0.91778245	0.21174014	-0.15876386	-0.62293766	0.22553190	-0.64496448	-0.57152610	-0.54090189	-0.25698374	-0.69832697	-0.47854683	0.01959282	-0.64836563	0.48474771	0.16479001	-0.55675766	-0.11649271	0.26704108	-0.69144122	-0.20182434	-0.32940237	-0.66626652	-0.30823948	-0.34124863
19	0.18000000	0.91648402	0.21430787	-0.16307672	-0.62881153	0.22875844	-0.64436688	-0.57096027	-0.54022639	-0.25496534	-0.69923328	-0.47786682	0.02735254	-0.64708043	0.48306670	0.16377570	-0.55771895	-0.11750360	0.26950286	-0.69193351	-0.19959815	-0.33043660	-0.67235881	-0.30976885	-0.34154329
20	0.19000000	0.91939352	0.21486738	-0.16545573	-0.62731777	0.22834802	-0.64517587	-0.57350925	-0.54237010	-0.24944319	-0.69827342	-0.47446174	0.02994035	-0.65181047	0.48126116	0.16667610	-0.55617879	-0.11876836	0.26614005	-0.69646505	-0.20090648	-0.32830173	-0.66600531	-0.31077531	-0.34518665
21	0.20000000	0.91508250	0.21267966	-0.16854067	-0.62519842	0.22525334	-0.64830441	-0.56992530	-0.54184528	-0.25687953	-0.69738243	-0.48141911	0.02500648	-0.64753842	0.49106311	0.16229816	-0.55786489	-0.11413964	0.26422874	-0.69711820	-0.20308451	-0.32943433	-0.67043136	-0.30780497	-0.33893403
22	0.21000000	0.91876599	0.21257136	-0.16364807	-0.63003542	0.22757480	-0.64587836	-0.56981129	-0.54836332	-0.25882864	-0.69768824	-0.48578555	0.02889421	-0.64082958	0.48219932	0.16353557	-0.55614068	-0.11590531	0.27117725	-0.69510681	-0.20567411	-0.33211659	-0.67438931	-0.31375532	-0.34135213
23	0.22000000	0.91541049	0.21046455	-0.17287189	-0.62714880	0.22383054	-0.65025944	-0.57718188	-0.54360228	-0.25695549	-0.69592662	-0.48148865	0.02754123	-0.64510383	0.48485116	0.16473826	-0.55799679	-0.11095748	0.26795327	-0.69472842	-0.20214477	-0.32881697	-0.67081106	-0.31301572	-0.34339682
24	0.23000000	0.91898728	0.21371767	-0.17500767	-0.62368316	0.22661586	-0.64663142	-0.57278463	-0.54399913	-0.25239209	-0.69514977	-0.48259820	0.03003787	-0.64168707	0.48981493	0.15990473	-0.55670319	-0.10660510	0.27070027	-0.69493912	-0.20242367	-0.32695752	-0.66565596	-0.31287276	-0.33794973
25	0.24000000	0.91236144	0.21520709	-0.17708933	-0.62774662	0.22677677	-0.64818350	-0.56905299	-0.54477459	-0.25165064	-0.69690480	-0.48333402	0.03835170	-0.64452810	0.48497493	0.16134174	-0.55570337	-0.11286163	0.27216574	-0.69433416	-0.20912839	-0.33392234	-0.66703764	-0.30826056	-0.34572653
26	0.25000000	0.90996272	0.21089546	-0.17470174	-0.62606637	0.21878938	-0.64358644	-0.56934987	-0.54495292	-0.25129646	-0.69967247	-0.48197222	0.03268873	-0.64591955	0.49030802	0.16167102	-0.55648960	-0.11222779	0.26985024	-0.69574495	-0.20489742	-0.32865997	-0.66941741	-0.31357917	-0.34554527
27	0.26000000	0.91385082	0.21310368	-0.18044824	-0.62775816	0.22836420	-0.64951290	-0.56711717	-0.54235637	-0.25579269	-0.69788613	-0.47718622	0.03299188	-0.64572983	0.49007561	0.16322129	-0.55371155	-0.11135185	0.26936470	-0.68696609	-0.20277357	-0.33161479	-0.67001327	-0.31328228	-0.34454160
